<?xml version="1.0" encoding="UTF-8" standalone="no"?>
<!-- Created with Inkscape (http://www.inkscape.org/) -->

<svg
   width="150mm"
   height="150mm"
   viewBox="0 0 150 150"
   version="1.1"
   id="svg1"
   xml:space="preserve"
   inkscape:version="1.4 (86a8ad7, 2024-10-11)"
   sodipodi:docname="Logo sin lema.svg"
   xmlns:inkscape="http://www.inkscape.org/namespaces/inkscape"
   xmlns:sodipodi="http://sodipodi.sourceforge.net/DTD/sodipodi-0.dtd"
   xmlns="http://www.w3.org/2000/svg"
   xmlns:svg="http://www.w3.org/2000/svg"><sodipodi:namedview
     id="namedview1"
     pagecolor="#505050"
     bordercolor="#eeeeee"
     borderopacity="1"
     inkscape:showpageshadow="0"
     inkscape:pageopacity="0"
     inkscape:pagecheckerboard="0"
     inkscape:deskcolor="#505050"
     inkscape:document-units="mm"
     inkscape:zoom="2.0792508"
     inkscape:cx="242.87594"
     inkscape:cy="253.21621"
     inkscape:window-width="2560"
     inkscape:window-height="1369"
     inkscape:window-x="-8"
     inkscape:window-y="-8"
     inkscape:window-maximized="1"
     inkscape:current-layer="layer1"
     inkscape:lockguides="false" /><defs
     id="defs1"><linearGradient
       id="swatch1"
       inkscape:swatch="solid"><stop
         style="stop-color:#ffffff;stop-opacity:1;"
         offset="0"
         id="stop1" /></linearGradient></defs><g
     inkscape:label="Layer 1"
     inkscape:groupmode="layer"
     id="layer1"
     transform="translate(-30,-89.904182)"><rect
       style="opacity:0.998092;fill:#27426b;fill-opacity:1;stroke:none;stroke-width:0.083958;stroke-linecap:round;stroke-linejoin:round;stroke-dasharray:none;stroke-opacity:1;paint-order:fill markers stroke"
       id="rect32962"
       width="150"
       height="150"
       x="30"
       y="89.904182"
       sodipodi:insensitive="true"
       inkscape:label="Fondo" /><path
       d="m 100.28622,122.28171 c 3.22373,1.45466 5.62189,5.54328 5.15012,8.76704 -0.58969,3.81342 -3.69551,7.07646 -7.233754,7.58755 -3.459641,0.47177 -6.368846,-0.86491 -8.531099,-3.89206 -1.061458,-1.41529 -1.179417,-1.92639 -1.179417,-4.40316 0,-2.39812 0.157158,-3.02713 1.179417,-4.67834 2.201575,-3.57756 6.8799,-5.07151 10.614733,-3.38103 z m 37.93784,7.70557 c 0.39312,0.47174 0.39312,2.16221 0,8.29523 -0.23589,4.24588 -0.31453,7.86273 -0.11812,8.01999 0.15732,0.15748 1.84776,0.39314 3.73485,0.47175 6.01504,0.31454 6.05436,1.02222 0.47177,9.94643 -1.21874,1.92636 -2.51608,4.01 -2.86991,4.59973 -2.90922,4.91425 -6.60473,10.96856 -7.391,11.99073 -1.02212,1.41529 -2.24089,1.65117 -3.45961,0.74694 -0.70765,-0.51105 -0.747,-0.82559 -0.27518,-8.33451 0.58968,-9.23876 0.74694,-8.80632 -3.81347,-8.80632 -3.10577,0 -4.36384,-0.58972 -4.36384,-2.00502 0,-0.35383 1.0615,-2.39816 2.31951,-4.56038 1.2974,-2.12297 3.18444,-5.26808 4.20661,-6.9979 3.3417,-5.62187 7.70554,-12.5804 8.33455,-13.28805 0.74694,-0.8256 2.5554,-0.8649 3.22375,-0.0785 z m -44.817763,10.45744 c 2.948537,1.17946 3.420264,1.53326 4.442472,3.14514 0.58967,0.98282 1.847752,3.81344 2.751971,6.2902 l 1.65119,4.4818 4.08862,2.00498 c 2.24086,1.06148 4.48179,2.43745 4.99284,3.06647 1.37599,1.57256 1.25806,3.49895 -0.23588,5.03222 -1.06147,1.06147 -1.41529,1.17938 -2.86993,0.98282 -2.20158,-0.23589 -9.867762,-4.01001 -11.440318,-5.58255 -0.707657,-0.70769 -1.572589,-1.92642 -1.965728,-2.71265 -0.628981,-1.376 -0.746946,-1.41537 -1.179363,-0.74698 -0.943553,1.33664 -4.245899,7.62689 -4.088631,7.78412 0.03913,0.039 1.258026,0.66836 2.673307,1.37599 5.464647,2.71268 6.447487,4.12798 6.368857,9.23878 -0.118118,7.23375 -0.786289,14.34955 -1.415314,15.3324 -1.415336,2.16228 -4.285186,2.9485 -6.211581,1.69052 -0.55039,-0.35385 -1.297348,-1.2974 -1.651171,-2.08367 -0.629012,-1.29733 -0.629012,-1.92637 -0.275189,-6.09364 0.235879,-2.55541 0.432458,-5.73982 0.432458,-7.03715 v -2.39819 l -2.00502,-1.02213 c -2.280208,-1.1401 -2.791287,-1.06148 -3.616867,0.51105 -3.263044,6.25091 -12.22662,21.7799 -13.012891,22.60548 -2.909226,2.98787 -7.744829,0.51107 -7.194436,-3.69549 0.15725,-1.29736 1.572546,-4.01003 7.194436,-13.87782 0.471761,-0.8649 2.044325,-3.61687 3.459618,-6.09363 l 2.555403,-4.5211 -1.297344,-1.37595 c -1.808451,-1.88709 -2.594726,-3.57758 -2.594726,-5.5826 0.0393,-1.76913 0.432451,-2.71266 3.89207,-9.08151 1.14011,-2.08361 1.965689,-3.81343 1.80844,-3.81343 -0.825612,0 -2.791285,1.53322 -5.70051,4.5211 -1.847759,1.88704 -3.852755,3.65617 -4.481791,4.01001 -2.476761,1.29734 -5.346676,-0.51109 -5.346676,-3.38096 0.0393,-1.69052 0.235872,-2.00505 4.756972,-6.56546 4.245907,-4.28521 5.975712,-5.30735 11.361708,-6.60471 2.280208,-0.5504 4.481794,-1.06147 4.914239,-1.17943 2.12294,-0.51108 5.975697,0.0785 9.238732,1.37597 z m 57.201663,46.9408 0.98283,0.94349 v 9.0029 c 0,8.29519 -0.0785,9.1208 -0.74696,9.9464 l -0.74698,0.94354 h -45.28957 c -44.345982,0 -45.289509,0 -45.839902,-0.74699 -0.864913,-1.17941 -0.707661,-2.86989 0.353825,-3.53824 0.471763,-0.27517 2.909226,-0.90421 5.38599,-1.37597 2.476775,-0.47178 6.368845,-1.21871 8.649053,-1.65116 2.280216,-0.4325 5.818471,-1.14014 7.862779,-1.53329 2.044331,-0.43246 5.77913,-1.1401 8.255906,-1.61185 9.120783,-1.69051 16.040019,-2.98786 30.075079,-5.70048 2.83061,-0.51113 7.50895,-1.41532 10.41817,-1.96571 2.90922,-0.55044 7.62688,-1.45462 10.41818,-1.96572 2.8306,-0.55035 5.81844,-1.14011 6.68332,-1.29736 2.39814,-0.51109 2.51611,-0.51109 3.53828,0.55044 z"
       id="path1-6"
       style="fill:#ffffff;fill-opacity:1;stroke:none;stroke-width:1.46583;stroke-dasharray:none;stroke-opacity:1"
       inkscape:label="Imagen"
       sodipodi:nodetypes="ccccsccsccccccccsscccssccccccccsccsccccccscccccccccccscccccccccsccsccsscccsccc" /><path
       style="opacity:1;fill:none;fill-opacity:1;stroke:#ffffff;stroke-width:0.839377;stroke-linecap:round;stroke-linejoin:round;stroke-dasharray:none;stroke-opacity:1;paint-order:fill markers stroke"
       id="path32962"
       d="m 125.42853,93.35028 a 74.412933,74.412933 0 0 1 51.1265,91.97846 74.412933,74.412933 0 0 1 -91.975629,51.13159 74.412933,74.412933 0 0 1 -51.13669,-91.97279 74.412933,74.412933 0 0 1 91.969959,-51.141786"
       sodipodi:type="arc"
       sodipodi:arc-type="arc"
       sodipodi:start="4.9904891"
       sodipodi:end="4.9902675"
       sodipodi:ry="74.412933"
       sodipodi:rx="74.412933"
       sodipodi:cy="164.90417"
       sodipodi:cx="105"
       sodipodi:open="true"
       inkscape:label="Círculo" /><path
       style="opacity:1;fill:none;fill-opacity:1;stroke:#27426b;stroke-width:2.05131;stroke-linecap:round;stroke-linejoin:round;stroke-dasharray:none;stroke-opacity:1;paint-order:fill markers stroke"
       d="m 88.237029,138.07166 c -12.678406,19.39061 -8.651502,25.56951 -8.651502,25.56951"
       id="path32964"
       inkscape:label="Línea persona2"
       sodipodi:nodetypes="cc" /><path
       style="fill:none;fill-opacity:1;stroke:#27426b;stroke-width:2.05131;stroke-linecap:round;stroke-linejoin:round;stroke-dasharray:none;stroke-opacity:1;paint-order:fill markers stroke"
       d="M 81.443668,170.18478 C 68.76525,189.57539 66.921804,197.48309 66.921804,197.48309 m 12.609223,-33.84387 c 5.967897,-1.00795 3.631049,3.85166 1.816351,6.69124"
       id="path32964-8"
       inkscape:label="Línea persona1"
       sodipodi:nodetypes="cccc" /><path
       style="opacity:1;fill:none;fill-opacity:1;stroke:#27426b;stroke-width:2.05131;stroke-linecap:round;stroke-linejoin:round;stroke-dasharray:none;stroke-opacity:1;paint-order:fill markers stroke"
       d="m 136.95436,129.97362 c -0.71304,12.22527 -8.81248,22.24825 -9.09186,22.48986 l 5.37584,-0.32122 6.65638,-0.96308 c -6.6587,5.70596 -9.06987,14.32742 -10.83421,23.73505"
       id="path32965"
       inkscape:label="Línea rayo"
       sodipodi:nodetypes="ccccc" /></g></svg>
