<?xml version="1.0" encoding="UTF-8" standalone="no"?>
<!-- Created with Inkscape (http://www.inkscape.org/) -->

<svg
   width="150mm"
   height="150mm"
   viewBox="0 0 150 150"
   version="1.1"
   id="svg1"
   xml:space="preserve"
   inkscape:version="1.4 (86a8ad7, 2024-10-11)"
   sodipodi:docname="Logo sin lema.svg"
   xmlns:inkscape="http://www.inkscape.org/namespaces/inkscape"
   xmlns:sodipodi="http://sodipodi.sourceforge.net/DTD/sodipodi-0.dtd"
   xmlns="http://www.w3.org/2000/svg"
   xmlns:svg="http://www.w3.org/2000/svg"><sodipodi:namedview
     id="namedview1"
     pagecolor="#505050"
     bordercolor="#eeeeee"
     borderopacity="1"
     inkscape:showpageshadow="0"
     inkscape:pageopacity="0"
     inkscape:pagecheckerboard="0"
     inkscape:deskcolor="#505050"
     inkscape:document-units="mm"
     inkscape:zoom="0.73512617"
     inkscape:cx="278.18354"
     inkscape:cy="245.53608"
     inkscape:window-width="1536"
     inkscape:window-height="793"
     inkscape:window-x="2552"
     inkscape:window-y="200"
     inkscape:window-maximized="1"
     inkscape:current-layer="layer1"
     inkscape:lockguides="false" /><defs
     id="defs1"><linearGradient
       id="swatch1"
       inkscape:swatch="solid"><stop
         style="stop-color:#ffffff;stop-opacity:1;"
         offset="0"
         id="stop1" /></linearGradient></defs><g
     inkscape:label="Layer 1"
     inkscape:groupmode="layer"
     id="layer1"
     transform="translate(-30,-89.904182)"><rect
       style="opacity:0.998092;fill:#27426b;fill-opacity:1;stroke:none;stroke-width:0.083958;stroke-linecap:round;stroke-linejoin:round;stroke-dasharray:none;stroke-opacity:1;paint-order:fill markers stroke"
       id="rect32962"
       width="150"
       height="150"
       x="30"
       y="89.904182"
       sodipodi:insensitive="true"
       inkscape:label="Fondo" /><text
       xml:space="preserve"
       style="font-style:normal;font-variant:normal;font-weight:normal;font-stretch:normal;font-size:29.3468px;font-family:'Colonna MT';-inkscape-font-specification:'Colonna MT, Normal';font-variant-ligatures:normal;font-variant-caps:normal;font-variant-numeric:normal;font-variant-east-asian:normal;text-align:start;writing-mode:lr-tb;direction:ltr;text-anchor:start;opacity:0.998092;fill:#ffffff;fill-opacity:1;stroke:none;stroke-width:0.5;stroke-linecap:round;stroke-linejoin:round;stroke-dasharray:none;stroke-opacity:1;paint-order:fill markers stroke"
       x="47.456722"
       y="205.26375"
       id="text32961"
       inkscape:label="CotidyFit"
       sodipodi:insensitive="true"><tspan
         id="tspan32961"
         style="font-style:normal;font-variant:normal;font-weight:normal;font-stretch:normal;font-size:29.3468px;font-family:'Colonna MT';-inkscape-font-specification:'Colonna MT, Normal';font-variant-ligatures:normal;font-variant-caps:normal;font-variant-numeric:normal;font-variant-east-asian:normal;fill:#ffffff;fill-opacity:1;stroke:none;stroke-width:0.5;stroke-dasharray:none;stroke-opacity:1"
         x="47.456722"
         y="205.26375"
         sodipodi:role="line">Cotidy<tspan
   style="stroke:#ffffff;stroke-width:0.5;stroke-dasharray:none;stroke-opacity:1"
   id="tspan32963">Fit</tspan></tspan></text><path
       d="m 102.96646,131.93784 c 1.39073,0.62754 2.4253,2.39139 2.22178,3.78213 -0.2544,1.64513 -1.59426,3.05282 -3.12067,3.2733 -1.49251,0.20352 -2.747558,-0.37313 -3.680358,-1.67905 -0.45792,-0.61056 -0.5088,-0.83105 -0.5088,-1.89954 0,-1.03456 0.0678,-1.30592 0.5088,-2.01825 0.94977,-1.54338 2.968028,-2.18787 4.579248,-1.45859 z m 16.36653,3.32421 c 0.16959,0.20351 0.16959,0.93279 0,3.57859 -0.10177,1.83169 -0.13569,3.39202 -0.051,3.45986 0.0679,0.0679 0.79713,0.1696 1.61123,0.20352 2.5949,0.13569 2.61187,0.44098 0.20352,4.29092 -0.52577,0.83105 -1.08545,1.72993 -1.23809,1.98434 -1.25505,2.12003 -2.84931,4.73188 -3.18851,5.17285 -0.44095,0.61056 -0.96672,0.71232 -1.49249,0.32223 -0.30528,-0.22047 -0.32225,-0.35616 -0.11871,-3.59554 0.25439,-3.98563 0.32223,-3.79908 -1.64515,-3.79908 -1.33984,0 -1.88257,-0.2544 -1.88257,-0.86497 0,-0.15264 0.45793,-1.03457 1.00065,-1.96737 0.55969,-0.91586 1.37377,-2.27266 1.81474,-3.01891 1.44162,-2.42531 3.3242,-5.42724 3.59556,-5.73252 0.32223,-0.35617 1.10241,-0.37313 1.39073,-0.0339 z m -19.334568,4.51138 c 1.272018,0.50882 1.475528,0.66146 1.916508,1.35682 0.25439,0.424 0.79713,1.64514 1.18721,2.71362 l 0.71233,1.93346 1.76385,0.86497 c 0.96672,0.45792 1.93346,1.05152 2.15393,1.32288 0.59361,0.67841 0.54273,1.50946 -0.10176,2.17092 -0.45792,0.45792 -0.61056,0.50879 -1.2381,0.424 -0.94977,-0.10177 -4.25699,-1.72995 -4.9354,-2.40834 -0.30528,-0.3053 -0.67842,-0.83107 -0.84802,-1.17025 -0.27135,-0.59361 -0.32224,-0.61059 -0.50879,-0.32225 -0.407048,0.57664 -1.831698,3.29027 -1.763848,3.3581 0.0169,0.0169 0.54271,0.28833 1.15327,0.59361 2.357478,1.17026 2.781478,1.78082 2.747558,3.98564 -0.051,3.12067 -0.33921,6.19046 -0.61057,6.61446 -0.61058,0.93281 -1.848658,1.272 -2.679708,0.72929 -0.23744,-0.15265 -0.55968,-0.55969 -0.71232,-0.8989 -0.27136,-0.55967 -0.27136,-0.83104 -0.11872,-2.62882 0.10176,-1.10241 0.18656,-2.47617 0.18656,-3.03585 v -1.03459 l -0.86497,-0.44095 c -0.983688,-0.49184 -1.204168,-0.45792 -1.560328,0.22047 -1.40769,2.69667 -5.27461,9.39593 -5.613811,9.75209 -1.255051,1.28898 -3.341148,0.22048 -3.103707,-1.59425 0.06784,-0.55969 0.678403,-1.72994 3.103707,-5.98694 0.20352,-0.37313 0.88193,-1.56033 1.492493,-2.62882 l 1.102411,-1.95042 -0.559683,-0.59359 c -0.780169,-0.8141 -1.119371,-1.54338 -1.119371,-2.40835 0.01695,-0.76321 0.186561,-1.17026 1.679054,-3.9178 0.491847,-0.89888 0.848007,-1.64513 0.780167,-1.64513 -0.35617,0 -1.204169,0.66144 -2.459221,1.95042 -0.79713,0.81407 -1.662094,1.57729 -1.933462,1.72994 -1.068484,0.55967 -2.306577,-0.22049 -2.306577,-1.45857 0.01695,-0.7293 0.101756,-0.86498 2.052176,-2.83236 1.831701,-1.84866 2.577945,-2.28961 4.901484,-2.8493 0.98369,-0.23744 1.93346,-0.45792 2.12002,-0.50881 0.915848,-0.22048 2.577938,0.0339 3.985628,0.5936 z m 24.677028,20.25044 0.424,0.40703 v 3.88388 c 0,3.57858 -0.0339,3.93475 -0.32225,4.29092 l -0.32224,0.40704 h -19.5381 c -19.131034,0 -19.538075,0 -19.775517,-0.32225 -0.373127,-0.5088 -0.305287,-1.23808 0.152641,-1.52641 0.203521,-0.11871 1.255052,-0.39008 2.323537,-0.5936 1.068491,-0.20353 2.747545,-0.52576 3.731235,-0.71232 0.983691,-0.18658 2.510108,-0.49186 3.392028,-0.66146 0.88193,-0.18657 2.493138,-0.49185 3.561638,-0.69536 3.934748,-0.72929 6.919728,-1.28898 12.974508,-2.45921 1.22113,-0.2205 3.23939,-0.61057 4.49444,-0.84802 1.25505,-0.23745 3.29027,-0.62752 4.49444,-0.84801 1.22113,-0.23743 2.5101,-0.49185 2.88321,-0.55969 1.03458,-0.22049 1.08546,-0.22049 1.52643,0.23746 z"
       id="path1-6"
       style="fill:#ffffff;fill-opacity:1;stroke:none;stroke-width:0.632368;stroke-dasharray:none;stroke-opacity:1"
       inkscape:label="Imagen"
       sodipodi:nodetypes="ccccsccsccccccccsscccssccccccccsccsccccccscccccccccccscccccccccsccsccsscccsccc" /><path
       style="opacity:1;fill:none;fill-opacity:1;stroke:#ffffff;stroke-width:0.362111;stroke-linecap:round;stroke-linejoin:round;stroke-dasharray:none;stroke-opacity:1;paint-order:fill markers stroke"
       id="path32962"
       d="m 113.81295,119.45664 a 32.102028,32.102028 0 0 1 22.05617,39.67987 32.102028,32.102028 0 0 1 -39.678646,22.05837 32.102028,32.102028 0 0 1 -22.060566,-39.67742 32.102028,32.102028 0 0 1 39.676202,-22.06277"
       sodipodi:type="arc"
       sodipodi:arc-type="arc"
       sodipodi:start="4.9904891"
       sodipodi:end="4.9902675"
       sodipodi:ry="32.102028"
       sodipodi:rx="32.102028"
       sodipodi:cy="150.32527"
       sodipodi:cx="105"
       sodipodi:open="true"
       inkscape:label="Círculo" /><path
       style="opacity:1;fill:none;fill-opacity:1;stroke:#27426b;stroke-width:0.884942;stroke-linecap:round;stroke-linejoin:round;stroke-dasharray:none;stroke-opacity:1;paint-order:fill markers stroke"
       d="m 97.624195,138.71182 c -5.469536,8.36519 -3.732315,11.03079 -3.732315,11.03079"
       id="path32964"
       inkscape:label="Línea persona2"
       sodipodi:nodetypes="cc" /><path
       style="fill:none;fill-opacity:1;stroke:#27426b;stroke-width:0.884942;stroke-linecap:round;stroke-linejoin:round;stroke-dasharray:none;stroke-opacity:1;paint-order:fill markers stroke"
       d="m 94.77613,152.59754 c -5.469544,8.36519 -6.264822,11.7766 -6.264822,11.7766 M 93.951,149.77376 c 2.57459,-0.43483 1.56646,1.66163 0.78359,2.88663"
       id="path32964-8"
       inkscape:label="Línea persona1"
       sodipodi:nodetypes="cccc" /><path
       style="opacity:1;fill:none;fill-opacity:1;stroke:#27426b;stroke-width:0.884942;stroke-linecap:round;stroke-linejoin:round;stroke-dasharray:none;stroke-opacity:1;paint-order:fill markers stroke"
       d="m 118.94623,135.02435 c -0.30761,5.27402 -3.80174,9.59797 -3.92227,9.70221 l 2.31916,-0.13857 2.87159,-0.41548 c -2.87259,2.46157 -3.91278,6.1809 -4.67392,10.23939"
       id="path32965"
       inkscape:label="Línea rayo"
       sodipodi:nodetypes="ccccc" /></g></svg>
